<svg xmlns="http://www.w3.org/2000/svg" viewBox="0 0 120 120" width="120" height="120" role="img" aria-label="Bob — your pocket second brain">
  <title>Bob</title>
  <desc>A small brain character with round glasses, holding a notebook. Bobrain's mascot.</desc>

  <!-- background tile -->
  <rect width="120" height="120" rx="16" ry="16" fill="#0f1114"/>
  <ellipse cx="60" cy="108" rx="26" ry="3" fill="#000" opacity="0.35"/>

  <!-- brain silhouette: cauliflower-like lobes -->
  <path d="M 30 70
           Q 26 60 30 52
           Q 26 44 34 40
           Q 36 30 46 32
           Q 50 26 58 30
           Q 60 26 64 30
           Q 70 26 74 32
           Q 84 30 86 40
           Q 94 44 90 52
           Q 94 60 90 70
           Q 90 80 80 82
           L 40 82
           Q 30 80 30 70 Z"
        fill="#d4a48f"/>

  <!-- brain folds (subtle) -->
  <g stroke="#a07764" stroke-width="1.2" fill="none" stroke-linecap="round" opacity="0.7">
    <path d="M 38 50 Q 46 46 52 52"/>
    <path d="M 56 46 Q 60 50 64 46"/>
    <path d="M 68 52 Q 74 46 82 50"/>
    <path d="M 36 62 Q 46 58 56 64"/>
    <path d="M 64 64 Q 74 58 84 62"/>
    <path d="M 42 74 Q 50 70 58 74"/>
    <path d="M 62 74 Q 70 70 78 74"/>
  </g>

  <!-- midline -->
  <path d="M 60 32 Q 58 50 60 76" stroke="#a07764" stroke-width="1.2" fill="none" opacity="0.5"/>

  <!-- glasses (round, gold — same accent as Mnemo lineage) -->
  <g stroke="#d4a84f" stroke-width="1.2" fill="none">
    <circle cx="50" cy="60" r="5"/>
    <circle cx="70" cy="60" r="5"/>
    <line x1="55" y1="60" x2="65" y2="60"/>
    <line x1="45" y1="58" x2="42" y2="56"/>
    <line x1="75" y1="58" x2="78" y2="56"/>
  </g>

  <!-- eyes (under the lenses) with blink -->
  <g fill="#0f1114">
    <circle cx="50" cy="60" r="1.6">
      <animate attributeName="ry" values="1.6;1.6;0.15;1.6" keyTimes="0;0.92;0.96;1" dur="5s" repeatCount="indefinite"/>
    </circle>
    <circle cx="70" cy="60" r="1.6">
      <animate attributeName="ry" values="1.6;1.6;0.15;1.6" keyTimes="0;0.92;0.96;1" dur="5s" repeatCount="indefinite"/>
    </circle>
  </g>

  <!-- notebook (held below the brain) -->
  <g>
    <rect x="40" y="86" width="40" height="18" rx="2" fill="#8d6d28"/>
    <rect x="40" y="84" width="40" height="18" rx="2" fill="#d4a84f"/>
    <line x1="60" y1="84" x2="60" y2="102" stroke="#0f1114" stroke-width="0.8"/>
    <line x1="42" y1="89" x2="56" y2="89" stroke="#f5e9c3" stroke-width="0.6" opacity="0.8"/>
    <line x1="64" y1="89" x2="78" y2="89" stroke="#f5e9c3" stroke-width="0.6" opacity="0.8"/>
    <line x1="42" y1="93" x2="56" y2="93" stroke="#f5e9c3" stroke-width="0.6" opacity="0.6"/>
    <line x1="64" y1="93" x2="78" y2="93" stroke="#f5e9c3" stroke-width="0.6" opacity="0.6"/>
    <line x1="42" y1="97" x2="54" y2="97" stroke="#f5e9c3" stroke-width="0.6" opacity="0.5"/>
    <line x1="66" y1="97" x2="78" y2="97" stroke="#f5e9c3" stroke-width="0.6" opacity="0.5"/>
    <rect x="55" y="84" width="3" height="11" fill="#e85c44"/>
  </g>
</svg>
